<svg width="32" height="34" viewBox="0 0 32 34" fill="none" xmlns="http://www.w3.org/2000/svg">
<path d="M16.7053 28.3859V26.5353C16.7053 23.8331 14.5148 21.6426 11.8126 21.6426H5.17971C2.47751 21.6426 0.286943 23.8331 0.286943 26.5353V28.3859C0.286943 31.0881 2.47751 33.2787 5.17971 33.2787H11.8126C14.5148 33.2787 16.7053 31.0881 16.7053 28.3859Z" fill="black"/>
<path d="M26.2778 0H5.72815C2.72305 0 0.286926 2.43612 0.286926 5.44123V14.0667C0.286926 17.0718 2.72305 19.5079 5.72815 19.5079H26.2778C29.2829 19.5079 31.719 17.0718 31.719 14.0667V5.44123C31.719 2.43612 29.2829 0 26.2778 0Z" fill="black"/>
<path d="M26.2068 31.6293C28.5102 31.6293 30.3774 29.7621 30.3774 27.4587C30.3774 25.1552 28.5102 23.288 26.2068 23.288C23.9034 23.288 22.0361 25.1552 22.0361 27.4587C22.0361 29.7621 23.9034 31.6293 26.2068 31.6293Z" fill="black"/>
</svg>
